# xmcd
#
# Track frame offsets:
#	150
#	12333
#	33748
#	44843
#	53934
#	66736
#	82836
#	92015
#	106081
#	119362
#	133207
#	146928
#	157724
#	176433
#	187434
#	203210
#	220574
#	232284
#
# Disc length: 3307 seconds
# Revision: 1
# Processed by: cddbd v1.5.2PL0 Copyright (c) Steve Scherf et al.
# Submitted via: dBpowerAMP V12.0
#
DISCID=130ce912
DTITLE=Various Artist - The Best of Country
DYEAR=2003
DGENRE=Country
TTITLE0=Waylon Jennings - Don't Think Twice It's Allright
TTITLE1=Eden Kane - Have You Fallen Out Of Love
TTITLE2=The Allisons - Hello Mary Lou
TTITLE3=Frankie Lane - Rawhide
TTITLE4=Willie Nelson - I Just Don't Understand
TTITLE5=Don Fardon - Do You Rememeber
TTITLE6=Faron Young - Hallo Walls
TTITLE7=Don Fardon - Indian Reservation
TTITLE8=Kenny Rodgers - Ruby Don't Take Your Love To Town
TTITLE9=Willie Nelson - Home Is Where You're Happy
TTITLE10=Frankie Lane - Riders In The Sky
TTITLE11=Conway Twitty - Big Town
TTITLE12=Eden Kane - We Could Have Had This All
TTITLE13=Frankie Lane - 15:10 To Yuma
TTITLE14=Don Fardon - A Good Woman's Love
TTITLE15=Bille Davis, Albert Lee - I Don't Know What Love Is
TTITLE16=Willie Nelson -  Touch Me
TTITLE17=Don Fardon - Brown Eyed And Blue
EXTD=
EXTT0=
EXTT1=
EXTT2=
EXTT3=
EXTT4=
EXTT5=
EXTT6=
EXTT7=
EXTT8=
EXTT9=
EXTT10=
EXTT11=
EXTT12=
EXTT13=
EXTT14=
EXTT15=
EXTT16=
EXTT17=
PLAYORDER=
